<?xml version="1.0" encoding="utf-8"?>
<!-- Generator: Adobe Illustrator 26.1.0, SVG Export Plug-In . SVG Version: 6.00 Build 0)  -->
<svg version="1.1" id="Calque_1" xmlns="http://www.w3.org/2000/svg" xmlns:xlink="http://www.w3.org/1999/xlink" x="0px" y="0px"
	 viewBox="0 0 595.3 255.4" style="enable-background:new 0 0 595.3 255.4;" xml:space="preserve">
<style type="text/css">
	.st0{fill:#F7A62B;stroke:#000000;stroke-width:6;stroke-linecap:round;stroke-linejoin:round;stroke-miterlimit:10;}
	.st1{fill:#FFFFFF;stroke:#000000;stroke-width:4;stroke-linecap:round;stroke-linejoin:round;stroke-miterlimit:10;}
	.st2{fill:none;stroke:#000000;stroke-width:6;stroke-linecap:round;stroke-linejoin:round;stroke-miterlimit:10;}
	.st3{fill:#EC6155;stroke:#000000;stroke-width:6;stroke-linecap:round;stroke-linejoin:round;stroke-miterlimit:10;}
	.st4{fill:#474A8B;stroke:#000000;stroke-width:6;stroke-linecap:round;stroke-linejoin:round;stroke-miterlimit:10;}
	.st5{fill:#4EB796;stroke:#000000;stroke-width:6;stroke-linecap:round;stroke-linejoin:round;stroke-miterlimit:10;}
</style>
<g id="Calque_2">
	<g>
		<path class="st0" d="M95.9,111.8c-25.4,0-46,20-46,44.7v60.3c0-9.6,6.9-15.2,15.3-15.2s15.3,5.5,15.3,15.2
			c0-9.6,6.9-15.2,15.3-15.2s15.3,5.5,15.3,15.2c0-9.6,6.9-15.2,15.3-15.2s15.3,5.5,15.3,15.2v-60.3
			C141.9,131.9,121.3,111.8,95.9,111.8z"/>
		<g>
			<circle class="st1" cx="79.9" cy="152.8" r="9.7"/>
			<circle class="st1" cx="111.9" cy="152.8" r="9.7"/>
		</g>
		<line class="st2" x1="60.7" y1="235.2" x2="121.6" y2="235.2"/>
		<path class="st3" d="M230.4,111.8c-25.4,0-46,20-46,44.7v60.3c0-9.6,6.9-15.2,15.3-15.2c8.5,0,15.3,5.5,15.3,15.2
			c0-9.6,6.9-15.2,15.3-15.2s15.3,5.5,15.3,15.2c0-9.6,6.9-15.2,15.3-15.2c8.5,0,15.3,5.5,15.3,15.2v-60.3
			C276.4,131.9,255.8,111.8,230.4,111.8z"/>
		<g>
			<circle class="st1" cx="214.4" cy="152.8" r="9.7"/>
			<circle class="st1" cx="246.4" cy="152.8" r="9.7"/>
		</g>
		<line class="st2" x1="195.2" y1="235.2" x2="256.1" y2="235.2"/>
		<path class="st4" d="M364.9,111.8c-25.4,0-46,20-46,44.7v60.3c0-9.6,6.9-15.2,15.3-15.2c8.5,0,15.3,5.5,15.3,15.2
			c0-9.6,6.9-15.2,15.3-15.2s15.3,5.5,15.3,15.2c0-9.6,6.9-15.2,15.3-15.2c8.5,0,15.3,5.5,15.3,15.2v-60.3
			C410.9,131.9,390.3,111.8,364.9,111.8z"/>
		<g>
			<circle class="st1" cx="348.9" cy="152.8" r="9.7"/>
			<circle class="st1" cx="380.9" cy="152.8" r="9.7"/>
		</g>
		<line class="st2" x1="329.7" y1="235.2" x2="390.6" y2="235.2"/>
		<path class="st5" d="M499.4,111.8c-25.4,0-46,20-46,44.7v60.3c0-9.6,6.9-15.2,15.3-15.2s15.3,5.5,15.3,15.2
			c0-9.6,6.9-15.2,15.3-15.2c8.5,0,15.3,5.5,15.3,15.2c0-9.6,6.9-15.2,15.3-15.2c8.5,0,15.3,5.5,15.3,15.2v-60.3
			C545.4,131.9,524.8,111.8,499.4,111.8z"/>
		<g>
			<circle class="st1" cx="483.4" cy="152.8" r="9.7"/>
			<circle class="st1" cx="515.4" cy="152.8" r="9.7"/>
		</g>
		<line class="st2" x1="464.2" y1="235.2" x2="525.1" y2="235.2"/>
	</g>
	<circle cx="33.4" cy="141.3" r="1.8"/>
	<circle cx="161" cy="116.7" r="1.8"/>
	<circle cx="293.3" cy="199.7" r="3"/>
	<circle cx="450.3" cy="126.8" r="2.1"/>
	<circle cx="577.5" cy="108" r="1.5"/>
	<circle cx="421.4" cy="141.8" r="1.2"/>
	<circle cx="545.4" cy="223.6" r="1.2"/>
	<circle cx="304.3" cy="212.4" r="1.3"/>
	<circle cx="24.6" cy="178.6" r="1.8"/>
</g>
<image style="display:none;overflow:visible;opacity:0.6;" width="800" height="600" xlink:href="../../../../Downloads/f90e0ae89c71616dd943477edf2b56e3.jpg"  transform="matrix(0.7435 0 0 0.7435 0.225 -49.2354)">
</image>
</svg>
